<svg width="204" height="39" viewBox="0 0 204 39" fill="none" xmlns="http://www.w3.org/2000/svg">
<path fill-rule="evenodd" clip-rule="evenodd" d="M17.6232 12.4229L18.4848 11.6805L19.942 10.4249V1.99804C19.942 0.894678 18.9037 0 17.6232 0C16.3427 0 15.3043 0.894678 15.3043 1.99804V10.4249L16.7616 11.6805L17.6232 12.4229ZM17.6232 22.7754L16.7616 23.5177L15.3043 24.7734V33.2002C15.3043 34.3036 16.3427 35.1983 17.6232 35.1983C18.9037 35.1983 19.942 34.3036 19.942 33.2002V24.7734L18.4848 23.5177L17.6232 22.7754ZM24.9705 15.1836H33.4643C34.5765 15.1836 35.4783 16.2137 35.4783 17.4841C35.4783 18.7545 34.5765 19.7847 33.4643 19.7847H24.9705L23.7044 18.3389L22.9565 17.4841L23.7044 16.6293L24.9705 15.1836ZM12.5217 17.4841L11.7734 16.6293L10.5078 15.1836H2.01393C0.901793 15.1836 0 16.2137 0 17.4841C0 18.7545 0.901793 19.7847 2.01393 19.7847H10.5078L11.7734 18.3389L12.5217 17.4841ZM13.8295 18.6344L16.6957 21.4779L15.9426 22.2249L8.09727 30.0083C7.7014 30.4011 7.18303 30.5972 6.66421 30.5972C6.4048 30.5972 6.14584 30.5481 5.90174 30.4498C5.65764 30.3519 5.42931 30.2045 5.23115 30.0083C4.43986 29.2233 4.43986 27.9499 5.23115 27.1648L13.0765 19.3814L13.8295 18.6344ZM18.7826 13.7204L21.6487 16.5639L22.4017 15.8168L30.2471 8.03345C31.0384 7.24841 31.0384 5.97546 30.2471 5.18997C30.0489 4.99383 29.8206 4.84638 29.5765 4.74853C29.3329 4.65023 29.0735 4.60108 28.814 4.60108C28.2952 4.60108 27.7769 4.79723 27.381 5.18997L19.5356 12.9734L18.7826 13.7204ZM17.2754 14.3446L20.0919 17.139L22.0835 19.115L29.7933 26.764C30.5713 27.5359 30.5713 28.7869 29.7933 29.5584C29.4047 29.9443 28.8948 30.1371 28.385 30.1371C27.8756 30.1371 27.3657 29.9443 26.9767 29.5584L19.267 21.9093L17.2754 19.9334L14.4588 17.139L12.4672 15.1631L4.75745 7.51409C3.9794 6.74217 3.9794 5.49119 4.75745 4.7197C4.85438 4.6231 4.95927 4.53879 5.06991 4.46634C5.29076 4.32188 5.53418 4.22528 5.78512 4.17698C5.91081 4.15283 6.03828 4.14097 6.16574 4.14097C6.67515 4.14097 7.185 4.33374 7.57403 4.7197L15.2838 12.3687L17.2754 14.3446ZM45.6149 2.54453H51.1363L68.101 22.8518V2.54453H73.6223V29.7945H68.101V29.5139L51.1363 8.4548V29.7945H45.6149V2.54453ZM76.7806 23.3089C76.7806 22.321 76.9954 21.4202 77.4251 20.6066C77.8547 19.793 78.4992 19.0927 79.3584 18.5057C80.2177 17.9188 81.2889 17.4655 82.572 17.1459C83.8551 16.8262 85.3501 16.6664 87.057 16.6664C88.3227 16.6664 89.6551 16.7594 91.0543 16.9454C92.4535 17.1313 93.8963 17.4161 95.3826 17.7996C95.3245 17.1488 95.1271 16.5473 94.7904 15.9952C94.4536 15.4431 93.9863 14.9666 93.3883 14.5656C92.7903 14.1646 92.0703 13.8537 91.2285 13.6328C90.3866 13.412 89.4316 13.3016 88.3633 13.3016C87.7827 13.3016 87.1441 13.3364 86.4474 13.4062C85.7507 13.4759 85.0307 13.5805 84.2876 13.72C83.5444 13.8595 82.81 14.0338 82.0843 14.243C81.3585 14.4522 80.6822 14.7021 80.0551 14.9927L78.4875 10.7561C79.2655 10.4772 80.0987 10.2215 80.987 9.98903C81.8753 9.75657 82.7839 9.55608 83.7128 9.38754C84.6417 9.21901 85.5707 9.08825 86.4996 8.99527C87.4286 8.90228 88.3285 8.85579 89.1993 8.85579C93.0428 8.85579 95.8993 9.83793 97.7688 11.8022C99.6383 13.7665 100.573 16.7768 100.573 20.8332V29.7945H95.4174V27.8593C94.8833 28.1731 94.2998 28.4695 93.6669 28.7485C93.0341 29.0274 92.3461 29.2715 91.603 29.4807C90.8598 29.6899 90.0615 29.8555 89.2081 29.9776C88.3546 30.0996 87.4518 30.1606 86.4996 30.1606C84.8972 30.1606 83.4893 29.9863 82.2759 29.6376C81.0624 29.2889 80.0493 28.8066 79.2365 28.1906C78.4237 27.5745 77.8112 26.851 77.3989 26.02C76.9867 25.1889 76.7806 24.2853 76.7806 23.3089ZM82.2149 23.1346C82.2149 23.4716 82.302 23.7942 82.4762 24.1022C82.6503 24.4102 82.929 24.6833 83.3122 24.9216C83.6954 25.1599 84.186 25.3517 84.784 25.4969C85.382 25.6422 86.1048 25.7149 86.9525 25.7149C87.8582 25.7149 88.7349 25.6335 89.5825 25.4708C90.4302 25.3081 91.2198 25.093 91.9513 24.8257C92.6829 24.5584 93.3447 24.2504 93.9369 23.9017C94.5291 23.553 95.0226 23.1927 95.4174 22.8208V21.9142C94.6278 21.6933 93.8469 21.5074 93.0748 21.3563C92.3026 21.2052 91.5652 21.086 90.8627 20.9989C90.1602 20.9117 89.4984 20.8507 88.8771 20.8158C88.2559 20.7809 87.7131 20.7635 87.2486 20.7635C86.2848 20.7635 85.4836 20.8274 84.845 20.9553C84.2063 21.0831 83.6896 21.2546 83.2948 21.4696C82.9 21.6846 82.6213 21.9374 82.4588 22.228C82.2962 22.5186 82.2149 22.8208 82.2149 23.1346ZM105.928 32.3748C106.462 32.7235 107.043 33.0315 107.67 33.2988C108.297 33.5662 108.95 33.787 109.629 33.9613C110.308 34.1357 111.002 34.2665 111.71 34.3536C112.419 34.4408 113.121 34.4844 113.818 34.4844C116.187 34.4844 118.013 33.9759 119.296 32.9589C120.579 31.9419 121.22 30.4164 121.22 28.3823V27.685C120.768 27.9988 120.26 28.2864 119.696 28.548C119.133 28.8095 118.529 29.0332 117.885 29.2192C117.241 29.4052 116.561 29.5475 115.847 29.6463C115.133 29.7451 114.41 29.7945 113.679 29.7945C112.111 29.7945 110.709 29.565 109.472 29.1059C108.236 28.6468 107.191 27.9726 106.337 27.0835C105.484 26.1943 104.831 25.0989 104.378 23.7971C103.925 22.4953 103.698 21.0076 103.698 19.3339V9.22192H108.837V17.9043C108.837 20.3916 109.31 22.2251 110.256 23.4048C111.202 24.5845 112.697 25.1744 114.741 25.1744C116.181 25.1744 117.455 24.9216 118.564 24.416C119.673 23.9104 120.559 23.2624 121.22 22.4721V9.22192H126.376V27.4409C126.376 29.4052 126.097 31.1108 125.54 32.5579C124.983 34.0049 124.173 35.205 123.11 36.1581C122.048 37.1112 120.744 37.8231 119.2 38.2938C117.656 38.7645 115.902 38.9999 113.94 38.9999C112.024 38.9999 110.236 38.7965 108.575 38.3897C106.915 37.9829 105.394 37.4308 104.012 36.7334L105.928 32.3748ZM130.49 13.5108H141.028L128.435 29.7945H149.894V25.5057H137.91L150.59 9.22192H130.49V13.5108ZM153.605 20.6066C153.176 21.4202 152.961 22.321 152.961 23.3089C152.961 24.2853 153.167 25.1889 153.579 26.02C153.991 26.851 154.604 27.5745 155.417 28.1906C156.23 28.8066 157.243 29.2889 158.456 29.6376C159.67 29.9863 161.077 30.1606 162.68 30.1606C163.632 30.1606 164.535 30.0996 165.388 29.9776C166.242 29.8555 167.04 29.6899 167.783 29.4807C168.526 29.2715 169.214 29.0274 169.847 28.7485C170.48 28.4695 171.064 28.1731 171.598 27.8593V29.7945H176.753V20.8332C176.753 16.7768 175.818 13.7665 173.949 11.8022C172.08 9.83793 169.223 8.85579 165.38 8.85579C164.509 8.85579 163.609 8.90228 162.68 8.99527C161.751 9.08825 160.822 9.21901 159.893 9.38754C158.964 9.55608 158.055 9.75657 157.167 9.98903C156.279 10.2215 155.446 10.4772 154.668 10.7561L156.235 14.9927C156.862 14.7021 157.539 14.4522 158.264 14.243C158.99 14.0338 159.725 13.8595 160.468 13.72C161.211 13.5805 161.931 13.4759 162.628 13.4062C163.324 13.3364 163.963 13.3016 164.544 13.3016C165.612 13.3016 166.567 13.412 167.409 13.6328C168.251 13.8537 168.97 14.1646 169.568 14.5656C170.166 14.9666 170.634 15.4431 170.971 15.9952C171.307 16.5473 171.505 17.1488 171.563 17.7996C170.077 17.4161 168.634 17.1313 167.235 16.9454C165.835 16.7594 164.503 16.6664 163.237 16.6664C161.53 16.6664 160.035 16.8262 158.752 17.1459C157.469 17.4655 156.398 17.9188 155.539 18.5057C154.679 19.0927 154.035 19.793 153.605 20.6066ZM158.656 24.1022C158.482 23.7942 158.395 23.4716 158.395 23.1346C158.395 22.8208 158.476 22.5186 158.639 22.228C158.802 21.9374 159.08 21.6846 159.475 21.4696C159.87 21.2546 160.387 21.0831 161.025 20.9553C161.664 20.8274 162.465 20.7635 163.429 20.7635C163.893 20.7635 164.436 20.7809 165.057 20.8158C165.679 20.8507 166.34 20.9117 167.043 20.9989C167.745 21.086 168.483 21.2052 169.255 21.3563C170.027 21.5074 170.808 21.6933 171.598 21.9142V22.8208C171.203 23.1927 170.709 23.553 170.117 23.9017C169.525 24.2504 168.863 24.5584 168.132 24.8257C167.4 25.093 166.61 25.3081 165.763 25.4708C164.915 25.6335 164.038 25.7149 163.133 25.7149C162.285 25.7149 161.562 25.6422 160.964 25.4969C160.366 25.3517 159.876 25.1599 159.492 24.9216C159.109 24.6833 158.831 24.4102 158.656 24.1022ZM185.816 2.54453H180.66V29.7945H185.816V24.8955L188.62 22.3849L196.267 29.7945H204L192.574 18.8457L203.321 9.22192H195.431L185.816 17.9566V2.54453Z" fill="#212121"/>
</svg>
